<?xml version="1.0" standalone="no"?>
<!DOCTYPE svg PUBLIC "-//W3C//DTD SVG 20010904//EN"
 "http://www.w3.org/TR/2001/REC-SVG-20010904/DTD/svg10.dtd">
<svg version="1.0" xmlns="http://www.w3.org/2000/svg"
 width="512.000000pt" height="512.000000pt" viewBox="0 0 512.000000 512.000000"
 preserveAspectRatio="xMidYMid meet">
<metadata>
Created by potrace 1.15, written by Peter Selinger 2001-2017
</metadata>
<g transform="translate(0.000000,512.000000) scale(0.100000,-0.100000)"
fill="#000000" stroke="none">
<path d="M130 4701 l0 -289 28 -6 c201 -42 444 -96 452 -101 7 -4 1402 -1701
1413 -1718 2 -3 -1442 -1787 -1447 -1787 -2 0 -122 -22 -267 -50 -145 -27
-265 -50 -266 -50 -2 0 -3 -130 -3 -290 l0 -290 995 0 995 0 0 289 0 288 -47
6 c-27 3 -136 14 -243 23 -107 9 -200 20 -207 23 -7 4 179 245 494 641 277
349 506 636 508 638 2 2 238 -283 525 -633 287 -350 518 -640 514 -644 -5 -5
-108 -16 -229 -25 -121 -10 -246 -20 -277 -23 l-58 -6 0 -288 0 -289 1035 0
1035 0 0 289 0 289 -22 5 c-26 7 -468 97 -474 97 -8 0 -1509 1795 -1506 1803
1 5 296 391 654 857 l651 849 46 10 c25 5 137 28 249 52 l202 42 0 289 0 288
-940 0 -940 0 0 -289 0 -288 53 -6 c28 -3 138 -14 242 -23 105 -10 194 -21
198 -25 10 -8 -932 -1221 -944 -1217 -10 4 -980 1210 -976 1214 3 3 435 54
457 54 6 0 10 113 10 290 l0 290 -955 0 -955 0 0 -289z"/>
</g>
</svg>
